<svg id="Capa_2" data-name="Capa 2" xmlns="http://www.w3.org/2000/svg" viewBox="0 0 5771.15 6389.35"><defs><style>.cls-1,.cls-10,.cls-11,.cls-12,.cls-13,.cls-14,.cls-15,.cls-16,.cls-17,.cls-18,.cls-19,.cls-2,.cls-20,.cls-21,.cls-22,.cls-23,.cls-24,.cls-25,.cls-26,.cls-27,.cls-28,.cls-29,.cls-3,.cls-30,.cls-31,.cls-32,.cls-33,.cls-34,.cls-35,.cls-36,.cls-4,.cls-5,.cls-6,.cls-7,.cls-8,.cls-9{fill:none;stroke:#000;stroke-miterlimit:10;}.cls-1{stroke-width:10px;}.cls-2{stroke-width:9px;}.cls-3{stroke-width:9.74px;}.cls-4{stroke-width:9.47px;}.cls-5{stroke-width:9.21px;}.cls-6{stroke-width:8.94px;}.cls-7{stroke-width:8.68px;}.cls-8{stroke-width:8.41px;}.cls-9{stroke-width:8.15px;}.cls-10{stroke-width:7.88px;}.cls-11{stroke-width:7.62px;}.cls-12{stroke-width:7.35px;}.cls-13{stroke-width:7.09px;}.cls-14{stroke-width:6.82px;}.cls-15{stroke-width:6.56px;}.cls-16{stroke-width:6.29px;}.cls-17{stroke-width:6.03px;}.cls-18{stroke-width:5.76px;}.cls-19{stroke-width:5.5px;}.cls-20{stroke-width:5.24px;}.cls-21{stroke-width:4.97px;}.cls-22{stroke-width:4.71px;}.cls-23{stroke-width:4.44px;}.cls-24{stroke-width:4.18px;}.cls-25{stroke-width:3.91px;}.cls-26{stroke-width:3.65px;}.cls-27{stroke-width:3.38px;}.cls-28{stroke-width:3.12px;}.cls-29{stroke-width:2.85px;}.cls-30{stroke-width:2.59px;}.cls-31{stroke-width:2.32px;}.cls-32{stroke-width:2.06px;}.cls-33{stroke-width:1.79px;}.cls-34{stroke-width:1.53px;}.cls-35{stroke-width:1.26px;}</style></defs><title>Ilustración_Magic_Plan</title><path class="cls-1" d="M3293.1,3974.83l192.56-432.15s104.39,8,157.92,13.13c0,0,359.16-273.9,554.89-463.62,102-98.85,152.51-181,189.11-335.53,23.52-99.34,37.95-175.5,59.79-246.1,57.6-4.8,224.11-40.27,224.11-40.27l76.81-408s9.6,168-4.8,297.61c158.4-43.2,268.81-124.8,427.22-254.41,19.2-182.41-672-1272-1123.25-1344C3265,651,2709.5,1286.05,2709.5,1286.05c-151.17,230-387.8,611.27-427.23,1045.08s144.6,644.14,190.61,749.31"/><path d="M2902.53,3097.88c198,122,650.93,423.11,740.44,455.65-225.12-10.85-493.63-24.41-493.63-24.41Z"/><path d="M2565.53,3294.46c0-6.64,143.85-185.9,179.26-506.81-55.32-39.83-124.41-58-108.44-192.54,14.81-124.69,32.11-180.18,32.11-180.18s31.28-135.09,83.18-97.71c37,26.67,41.84,78.71,41.84,78.71l119.51-104L2363.66,5031.37,3013.74,2231.9s236.82-65.55,383.06-257.24c-132.91,174.22-117.89,194.66-117.89,194.66l142.56,21.93,298.85-331.74-181,298.84,46.61,5.48s298.84-455.12,359.16-545.6C3830,1944.5,3783.38,2098,3783.38,2098l298.85-8.22,115.15-252.24-35.64,244s180.95-8.22,298.84,16.45c30.16-74,71.29-353.68,71.29-353.68l-21.94,392.07-57.57,230.3-16.09,161.17,235.21-57.6,68.76-377.74L4732,2361.24s200.15-24.68,441.42-265.95c0-191.92-35.68-583.49-89.13-719.45,59,91.6-208-420-416.66-491.18-93.24-31.81-619.47-186.19-952.48-132.48s-759.12,154-1142.26,709S2252.31,2502,2300.76,2703.69C2352.34,2918.45,2565.53,3294.46,2565.53,3294.46Z"/><path class="cls-2" d="M2764.76,2453.14c-16.68-16.67-27.27-13.74-32-4.17-11.42,23.32,5.55,32,6.94,55.59s-26.4,72.26-26.4,72.26-12.51,27.8,12.51,38.91"/><path class="cls-1" d="M2277.77,2225.82c-24.81,189.64-84.54,303.24-191.46,427.17-110.46,128-204.74,182-374.32,250.75,118-85.52,226-224.74,276.82-317.59-184.58,221.53-271.29,259.5-427.58,339.12S1195.86,3083,1124.8,3131.69c-128.15,87.74-144.49,197.57-144.49,197.57"/><path d="M3291.29,3978.9c0-7.22,75-159.57,75-159.57l147.51,159.57Z"/><line class="cls-1" x1="3058.89" y1="3970.7" x2="3325.29" y2="3970.7"/><path d="M3615.29,2458.73a45.56,45.56,0,0,1,13.05,32.38l5.41-3c-.64-15.57-4.16-30.7-7.68-45.82-.92-3.95-1.84-7.91-2.68-11.88-.89-4.19-2.54-9.23-.52-13.31,3.36-6.77,9.41-13.08,13.87-19.17l-3.75-2.17a35.77,35.77,0,0,1-8.78,15.14c-.87.91-2.06,3.65-.94,4.78,5.62,5.73,13.2,7.6,20.26,10.94a88.79,88.79,0,0,1,21.77,14.72l2.51-6.62c-10.46,2.49-14.69,15.09-19.06,23.58-5.66,10.95-12,21.83-12.65,34.43-.21,4.35,5.27-.19,5.41-3,.49-10,5.79-18.83,10.27-27.51,2-3.89,4-7.8,6-11.67s4.1-8,8.74-9.07c2.4-.58,4.57-4.75,2.51-6.62a88.67,88.67,0,0,0-20.24-14c-6.92-3.44-15.33-5.19-20.89-10.85l-1,4.78a44.77,44.77,0,0,0,10.77-18.6c.89-3-1.57-5.15-3.76-2.17-5,6.79-10.87,13.48-15,20.82-3.78,6.73-2.13,13.79-.59,21,3.95,18.34,9.19,36.45,10,55.31.18,4.51,5.38-.25,5.41-3a49.6,49.6,0,0,0-13.8-35.05c-2.39-2.47-6.64,3.61-4.66,5.67Z"/><path d="M3638,2543.76c4-.39,7.19-5.28,6.83-9.1-.1-1-.53-2-1.74-1.91a4.22,4.22,0,0,0-2.91,2.28,12.7,12.7,0,0,1-4.6,4.62,5.49,5.49,0,0,0-2.65,4.59,1.73,1.73,0,0,0,2.75,1.59,23.87,23.87,0,0,0,8.39-8.55l-4.65.38c0,.47-.06.22.09.14s.62-1.72.65-1c0-.13.11.14-.2.14-.08,0-.54.07-.69.09-2.78.27-5.16,7.12-1.27,6.74Z"/><path d="M3669,2422.87a1.59,1.59,0,0,0-.55-.28,24.53,24.53,0,0,0-5.34-2c-2.38-.6-6.21-.68-8.14-2.48-4.76-4.46,1.29-9.65,3.41-13,2.63-4.17,5.05-9.41,4.48-14.49-1.23-10.86-12.38-9.55-19.72-5.94-12.89,6.34-25.94,13.08-40.53,7.19a29.49,29.49,0,0,1-13.53-10.61c-3.84-5.76-2.82-13.49-7-18.86-6.9-8.9-16.27-.3-20.53,6.39-7.53,11.86-11.37,25.11-26.82,28.89a27.29,27.29,0,0,1-20-2.73c-5.51-3.22-8.24-9.06-13.28-12.75-7.68-5.64-17.36-2.85-20.8,6.11-4.73,12.3,5.44,24.08,5.88,36,.36,9.92-12.62,7.64-18.46,4.46-6.24-3.39-10.06-9.4-15.68-13.5-7.84-5.71-18.09-3.88-22.53,5.05a19.07,19.07,0,0,0-1.2,13.47,31.37,31.37,0,0,0,3.62,8c1.7,2.79,6.73,8.23,6.58,11.68-.36,8.35-16.7,5.72-22.15,7.35a21.07,21.07,0,0,0-12,9.27c-6.37,10.61.14,18.82,10.15,23,5.4,2.24,13.49,4.39,16.31,10.18,5.46,11.23-11.82,13-18.86,13.91-.86.11-12.8.45-36.64-5.27-7.81-1.88-11.22,10.39-6.07,14.87,9,7.81,28.28,6.91,38,6.23,5.67-.4,13.57-1.94,17,3.93a11.77,11.77,0,0,1,1.25,3.12,12.52,12.52,0,0,1-8,14.73,65.43,65.43,0,0,1-9,2.45,121.16,121.16,0,0,1-41.7-1.61,3.65,3.65,0,0,0-2.95.85c-2.68-.21-4.8,3.39-5.69,5.3l-.33.72c-.63,1.34-.93,3.73.08,5,4.52,5.66,11.19,7.72,18.15,8.42,10.41,1,21.38.66,31.8,0,21.77-1.32,39.36-8.48,57.74-19.62l-10.41,79.53-42.43-.83v15l167.34,39.84-15.93,18.6,15.05,4.42,36-23.2,3.69-27.25.11,0,3.05-23.37h0l9.25-70.67c2.41-1.84,4.84-5.75,4.36-8.29-1.2-6.26,8.62-12.24,12-16.86,2.9-4,5.35-9,5.16-14-.21-5.78-4.52-8-6.27-12.81-2.22-6.15,7.4-9.29,11.17-13.16,7.94-8.14,6.38-16.73,1.44-25.9-9.37-17.39,7.35-25.12,14.44-38.55C3677.73,2431.47,3674.71,2426,3669,2422.87Zm-245.88,47.64-.18-.07.24,0Zm79.07-23.34.09,0a1.58,1.58,0,0,0-.12.15ZM3486.82,2535c7.53-57.63,41-104.51,74.51-104.51a34.69,34.69,0,0,1,4.56.3c12.86,1.68,24.07,10.28,32.69,23.52,0,0,14.8,19,10,58.82-4,33.33-9.45,49.31-26.25,49.31-14.12,0-19.52-12.85-18.72-21.65s0-40.77-27.69-40.77-33.08,37.48-33.08,37.48l-11.26,90.16-16.62-2.18Zm109.58,87.27a9,9,0,1,1-9-9A9,9,0,0,1,3596.4,2622.26Zm-54.14-66.73a9,9,0,1,1,9-9A9,9,0,0,1,3542.26,2555.53Zm9,43.34a14.09,14.09,0,1,1-14.09-14.09A14.09,14.09,0,0,1,3551.28,2598.87Z"/><path d="M4166.31,2495.23a102.28,102.28,0,0,1,29.85,11.41c3.62,2.07,7.5-3.41,8.5-6,2.95-7.83-1.66-18.63-11.44-15.85-4.42,1.26-9.58,9.62-5,13.24,10.6,8.44,16.81,19.42,25.12,29.8,3.44,4.3,7.56,7.76,11.7,11.35,3.67,3.17,7.93,7,7.77,12.17l10.61-7.48a194.89,194.89,0,0,0-9.15-29.29c-.32-.8-.78-2.9-1.43-3.44-.41-1.66-1.14-1.23-2.17,1.28q-3.34,2.09-1.34,2.22c.06.12,1.76,1,2,1.28a8.42,8.42,0,0,1,1.46,2.26c1.86,3.85,2.41,8,5,11.51,3.5,4.82,9.47-3.9,9.91-7,.76-5.31,0-10.38-3.67-14.49-3.5-3.93-8.18,2.23-9.41,5.22-3.07,7.44-2,14.82,1.54,21.88s9.73,13.21,9.39,21.45a3.4,3.4,0,0,0,4.14,3.74c3-.6,4.87-3.81,6-6.3l5.26-11.3-9.51-.88.17-.25c-1.66,1.84-5.13,10.76.18,10.75l13.47,0c5.25,0,11.07-9.48,6.33-13.36a6.46,6.46,0,0,0-3.75-1.56c-5.66-1-11.87,12.5-5.16,13.72l1.41.83,6.33-13.36-13.47,0,.18,10.76a17.83,17.83,0,0,0,3.82-6.66c.79-2.48,1.33-6.74-2.17-7.3s-6.17,3.91-7.34,6.42l-5.26,11.29,10.16-2.56c.27-6.66-2.38-12.46-5.75-18.06-3-5-9-12.22-6.49-18.38l-9.4,5.23c1.45,1.63,2.79,3.53,2.46,5.83l9.91-7c-3.57-4.91-3.25-12.27-8.7-15.95-5.61-3.78-12.34,0-15.39,5.21-4.3,7.35.22,14,2.85,21.12a195.65,195.65,0,0,1,7.13,24.08c.71,3.08,4,2.57,6,1.23a11.18,11.18,0,0,0,4.61-8.71c.4-13.07-12.56-18.84-19.92-27.55-4.49-5.32-8-11.38-12.2-16.9A91.39,91.39,0,0,0,4195.7,2485l-5,13.24a2.87,2.87,0,0,1,2.85.52c.84.6,1.07,2.43,1.63.95l8.51-6a110.62,110.62,0,0,0-32.19-12.14c-5.61-1.18-11.87,12.31-5.16,13.72Z"/><path d="M4318,2656.92c-6,5.77-25.36,0-31.78-2.69-6.82-2.9-10.91-5.45-15.37-9.83-16.66-16.37-3.84-28.31,6.48-22.14,5.17,3.08,12.22,8.42,18.59,8,6.73-.46,12.71-5.12,16.16-10.72,2.94-4.79,4.95-11.33,2.47-16.74-2.94-6.37-10.53-7.56-16.5-9.74-5.14-1.88-7-2.77-6.79-5.78.28-3.5,3.58-4.12,8.87-4.38,6.72-.33,11.9-.64,20.57-1.32,13.92-1.08,17.46-18.92,3.18-22.34-10.26-2.45-26.6-5.44-29.44-6.41a4.86,4.86,0,0,1-2-8.27c3.46-2.55,7-4.92,10.7-7.15,7.71-4.69,12.57-6.76,20.48-11.07s11-13.17,8.26-18.4c-4.45-8.52-24.59-3.58-33-.62-10.52,3.69-15.71,7.11-25.23,8.24-4.41.53-11.38.8-13.46-4.5-1.44-3.65.85-9.22,3.58-11.62,9.43-8.31,19.4-16.09,29.1-24.09,4.07-3.36,8.72-9.8,5.73-14.94-2.52-4.32-9.76-4.63-16.51-1-17.72,7.72-30.46,13.35-39.6,9.94-5.19-1.93-8.06-9.52-1.51-18.46,2.06-2.79,4.09-5.6,6-8.32,5.66-8.17-3.61-18.14-11.87-9.25-5.47,5.89-14.59,16.68-19.62,22.13-4.16,4.5-9.43,9.73-13.84,10.16-14.23,1.41-8.56-26.69-5.89-34.4,5.37-15.52-10.8-24.17-17.2-3.86-1.93,6.13-5.65,15.49-8.56,22.58a11.38,11.38,0,0,1-14.1,6.46c-8.54-2.82-17.87-5.1-25.34-1.7-4.57,2.09-7.11,6.36-8.23,11.05-1.21,5,.25,11.32-2,16-3,6.11-10.18-.45-15.48-1.14-5.13-.68-11.14.2-15,4.07-4.22,4.27-2,10.07-.37,14.85,2.26,6.67,6.28,14.78,4.52,19.13a13.8,13.8,0,0,1-5.79,6.81,50.32,50.32,0,0,1-12.65,4.81c-4.36,1.06-8.75,2.29-11.94,5.66-5.81,6.13-4.68,14.67-.14,21.18a24.72,24.72,0,0,0,4.64,4.78c5.7,2.06,6.53,8.5,6.53,9.53,0,11.46-20.25,150.18-20.25,150.18l-2.67,17.65,33.34,34.66,14.6-5.37-8.87-19.54,153.24,6.94V2741l-26.8-4,2.55-21c1.47-2.32,7.86-36.9,20.14-44.42a23.59,23.59,0,0,1,22-1.31c12.35,5.95,28.6,11.64,36.36,12.37,12.78,1.21,27.06,1.47,36.91-8,3.51-3.39,8.68-13.65,2.49-19.7C4330.72,2648.16,4321.71,2653.31,4318,2656.92Zm-199.84,15.19a7.34,7.34,0,1,1,7.33-7.34A7.34,7.34,0,0,1,4118.12,2672.11Zm34.37,28.59a10.17,10.17,0,1,1,10.17-10.17A10.17,10.17,0,0,1,4152.49,2700.7Zm6-62.29a16.16,16.16,0,1,1,16.15-16.15A16.15,16.15,0,0,1,4158.48,2638.41Zm57-37.93-15.68,133.92-17.88-2.66-1.27-.67s9.28-84.4,12.77-120.48c3-31-10.68-41.06-24.69-43.06s-30.62,10-34.62,27-8.33,26.33-26.81,22.66c-19-3.78-12.81-32.7-12.81-32.7,3.54-29.08,17.06-53.3,36.24-64.8a12.38,12.38,0,0,0,3.15-1.76,49,49,0,0,1,22.46-5.45,50.32,50.32,0,0,1,6,.36C4196.93,2517.08,4220.77,2556.37,4215.47,2600.48Z"/><line class="cls-1" x1="4674.22" y1="3987.62" x2="4322.49" y2="4579.01"/><line class="cls-3" x1="4625.4" y1="3987.62" x2="4279.81" y2="4568.69"/><line class="cls-4" x1="4576.59" y1="3987.62" x2="4237.12" y2="4558.37"/><line class="cls-5" x1="4527.78" y1="3987.62" x2="4194.43" y2="4548.05"/><line class="cls-6" x1="4478.97" y1="3987.62" x2="4151.75" y2="4537.74"/><line class="cls-7" x1="4430.16" y1="3987.62" x2="4109.06" y2="4527.42"/><line class="cls-8" x1="4381.35" y1="3987.62" x2="4066.37" y2="4517.1"/><line class="cls-9" x1="4332.53" y1="3987.62" x2="4023.69" y2="4506.79"/><line class="cls-10" x1="4283.72" y1="3987.62" x2="3981" y2="4496.47"/><line class="cls-11" x1="4234.91" y1="3987.62" x2="3938.31" y2="4486.15"/><line class="cls-12" x1="4186.1" y1="3987.62" x2="3895.63" y2="4475.84"/><line class="cls-13" x1="4137.29" y1="3987.62" x2="3852.94" y2="4465.52"/><line class="cls-14" x1="4088.48" y1="3987.62" x2="3810.26" y2="4455.2"/><line class="cls-15" x1="4039.66" y1="3987.62" x2="3767.57" y2="4444.88"/><line class="cls-16" x1="3990.85" y1="3987.62" x2="3724.88" y2="4434.57"/><line class="cls-17" x1="3942.04" y1="3987.62" x2="3682.2" y2="4424.25"/><line class="cls-18" x1="3893.23" y1="3987.62" x2="3639.51" y2="4413.93"/><line class="cls-19" x1="3844.42" y1="3987.62" x2="3596.82" y2="4403.62"/><line class="cls-20" x1="3795.61" y1="3987.62" x2="3554.14" y2="4393.3"/><line class="cls-21" x1="3746.79" y1="3987.62" x2="3511.45" y2="4382.98"/><line class="cls-22" x1="3697.98" y1="3987.62" x2="3468.76" y2="4372.67"/><line class="cls-23" x1="3649.17" y1="3987.62" x2="3426.08" y2="4362.35"/><line class="cls-24" x1="3600.36" y1="3987.62" x2="3383.39" y2="4352.03"/><line class="cls-25" x1="3551.55" y1="3987.62" x2="3340.71" y2="4341.72"/><line class="cls-26" x1="3502.74" y1="3987.62" x2="3298.02" y2="4331.4"/><line class="cls-27" x1="3453.92" y1="3987.62" x2="3255.33" y2="4321.08"/><line class="cls-28" x1="3405.11" y1="3987.62" x2="3212.65" y2="4310.76"/><line class="cls-29" x1="3356.3" y1="3987.62" x2="3169.96" y2="4300.45"/><line class="cls-30" x1="3307.49" y1="3987.62" x2="3127.27" y2="4290.13"/><line class="cls-31" x1="3258.68" y1="3987.62" x2="3084.59" y2="4279.81"/><line class="cls-32" x1="3209.87" y1="3987.62" x2="3041.9" y2="4269.5"/><line class="cls-33" x1="3161.05" y1="3987.62" x2="2999.21" y2="4259.18"/><line class="cls-34" x1="3112.24" y1="3987.62" x2="2956.53" y2="4248.86"/><line class="cls-35" x1="3063.43" y1="3987.62" x2="2913.84" y2="4238.55"/><line class="cls-36" x1="3014.62" y1="3987.62" x2="2871.15" y2="4228.23"/><line class="cls-1" x1="5130.26" y1="4287.32" x2="4952.78" y2="4587.02"/><line class="cls-3" x1="5081.45" y1="4287.32" x2="4903.97" y2="4587.02"/><line class="cls-4" x1="5032.64" y1="4287.32" x2="4855.16" y2="4587.02"/><line class="cls-5" x1="4983.83" y1="4287.32" x2="4806.34" y2="4587.02"/><line class="cls-6" x1="4935.01" y1="4287.32" x2="4757.53" y2="4587.02"/><line class="cls-7" x1="4886.2" y1="4287.32" x2="4708.72" y2="4587.02"/><line class="cls-8" x1="4837.39" y1="4287.32" x2="4659.91" y2="4587.02"/><line class="cls-9" x1="4788.58" y1="4287.32" x2="4611.1" y2="4587.02"/><line class="cls-10" x1="4739.77" y1="4287.32" x2="4562.29" y2="4587.02"/><line class="cls-11" x1="4690.96" y1="4287.32" x2="4513.47" y2="4587.02"/><line class="cls-12" x1="4642.14" y1="4287.32" x2="4464.66" y2="4587.02"/><line class="cls-13" x1="4593.33" y1="4287.32" x2="4415.85" y2="4587.02"/><line class="cls-14" x1="4544.52" y1="4287.32" x2="4367.04" y2="4587.02"/><line class="cls-15" x1="4495.71" y1="4287.32" x2="4318.23" y2="4587.02"/><line class="cls-16" x1="4446.9" y1="4287.32" x2="4269.41" y2="4587.02"/><line class="cls-17" x1="4398.09" y1="4287.32" x2="4220.6" y2="4587.02"/><line class="cls-18" x1="4349.27" y1="4287.32" x2="4171.79" y2="4587.02"/><line class="cls-19" x1="4300.46" y1="4287.32" x2="4122.98" y2="4587.02"/><line class="cls-20" x1="4251.65" y1="4287.32" x2="4074.17" y2="4587.02"/><line class="cls-21" x1="4202.84" y1="4287.32" x2="4025.36" y2="4587.02"/><line class="cls-22" x1="4154.03" y1="4287.32" x2="3976.54" y2="4587.02"/><line class="cls-23" x1="4105.21" y1="4287.32" x2="3927.73" y2="4587.02"/><line class="cls-24" x1="4056.4" y1="4287.32" x2="3878.92" y2="4587.02"/><line class="cls-25" x1="4007.59" y1="4287.32" x2="3830.11" y2="4587.02"/><line class="cls-26" x1="3958.78" y1="4287.32" x2="3781.3" y2="4587.02"/><line class="cls-27" x1="3909.97" y1="4287.32" x2="3732.49" y2="4587.02"/><line class="cls-28" x1="3861.16" y1="4287.32" x2="3683.67" y2="4587.02"/><line class="cls-29" x1="3812.34" y1="4287.32" x2="3634.86" y2="4587.02"/><line class="cls-30" x1="3763.53" y1="4287.32" x2="3586.05" y2="4587.02"/><line class="cls-31" x1="3714.72" y1="4287.32" x2="3537.24" y2="4587.02"/><line class="cls-32" x1="3665.91" y1="4287.32" x2="3488.43" y2="4587.02"/><line class="cls-33" x1="3617.1" y1="4287.32" x2="3439.62" y2="4587.02"/><line class="cls-34" x1="3568.29" y1="4287.32" x2="3390.8" y2="4587.02"/><line class="cls-35" x1="3519.47" y1="4287.32" x2="3341.99" y2="4587.02"/><line class="cls-36" x1="3470.66" y1="4287.32" x2="3293.18" y2="4587.02"/><polyline class="cls-1" points="4496.73 4110.6 2511.51 4110.6 2511.51 6399.56"/><polyline class="cls-1" points="4686.79 4228.98 2701.56 4228.98 2701.56 6517.93"/><polyline class="cls-1" points="4876.84 4347.35 2891.61 4347.35 2891.61 6636.31"/><polyline class="cls-1" points="5066.89 4465.73 3081.66 4465.73 3081.66 6754.68"/><polyline class="cls-1" points="5256.94 4584.1 3271.71 4584.1 3271.71 6873.06"/><line class="cls-1" x1="2511.5" y1="4110.6" x2="3271.71" y2="4584.1"/><path class="cls-1" d="M2572.14,3272.2c-143,209.27-356.13,361.88-656.18,346.61-257.06-13.07-914.45-125.54-914.45-125.54s-134.08-46.12-334.82-5.71c-196.24,39.5-365.31,80.39-393.12,106.57-40.26,37.89-47.36,90,68.68,274.71"/></svg>